<?xml version="1.0" encoding="utf-8"?>
<!-- Generator: Adobe Illustrator 19.1.0, SVG Export Plug-In . SVG Version: 6.00 Build 0)  -->
<svg version="1.1" id="Layer_1" xmlns="http://www.w3.org/2000/svg" xmlns:xlink="http://www.w3.org/1999/xlink" x="0px" y="0px"
	 viewBox="0 0 112.4 83.4" style="enable-background:new 0 0 112.4 83.4;" xml:space="preserve">
<style type="text/css">
	.st0{fill:#E6E6E3;}
</style>
<g>
	<path class="st0" d="M29.7,15.3c0,5-3.3,8.1-9.7,8.1c-6.4,0-10-2.8-10-7.5V6.1h6.4v9.1c0,2.4,1.4,3.6,3.4,3.6c2,0,3.5-1.2,3.5-3.9
		V6.1h6.4V15.3z"/>
	<path class="st0" d="M30.9,6.1h5.5l9.3,8.8l-0.3-8.8h6.5v17.1h-5.5L37,14.4l0.4,8.8h-6.5V6.1z"/>
	<path class="st0" d="M53.1,6.1h6.4v17.1h-6.4V6.1z"/>
	<path class="st0" d="M70.5,5.8c6.9,0,10,4.4,10,8.8c0,4.4-3,8.8-10,8.8c-6.6,0-10-4-10-8.8C60.5,10.1,63.7,5.8,70.5,5.8z
		 M70.5,18.4c2.2,0,3.5-1.4,3.5-3.8c0-2.3-1.4-3.8-3.5-3.8c-2.2,0-3.6,1.5-3.6,3.8C67,16.9,68.3,18.4,70.5,18.4z"/>
	<path class="st0" d="M81.5,6.1H87l9.3,8.8L96,6.1h6.5v17.1H97l-9.3-8.8l0.3,8.8h-6.5V6.1z"/>
	<path class="st0" d="M4.5,10.1c0,2.3-0.4,3.7-2.2,4.2v0.1c1.9,0.5,2.2,2.1,2.2,4.5v5.7c0,2,0.5,3.2,2,3.7v0.1
		c-1.2,0-2.7,0.1-3.7-1.2C2,26.3,2,24.7,2,23.4V18c0-2.1-0.3-3.1-2-3.6v-0.1c0.6-0.2,1.1-0.5,1.5-1.2C2,12.4,2,11.7,2,10.7V4.6
		C2,3.2,2.1,1.9,3,1C4.1,0,5.2,0.2,6.5,0.2v0.1c-1.6,0.6-2,1.7-2,3.7V10.1z"/>
	<path class="st0" d="M108.1,3.8c0-2.1-0.4-3.2-1.9-3.8V0c1.2,0,2.2-0.2,3.3,0.8c0.9,0.9,1,2.3,1,3.7v6.1c0,1.1,0,1.7,0.5,2.5
		c0.4,0.7,0.9,1,1.4,1.2v0.1c-1.6,0.5-1.9,1.5-1.9,3.6v5.5c0,1.3,0,2.9-0.8,3.8c-0.9,1.3-2.4,1.2-3.5,1.2v-0.1
		c1.4-0.6,1.9-1.7,1.9-3.7v-5.7c0-2.4,0.3-4,2.1-4.5v-0.1c-1.7-0.5-2.1-2-2.1-4.2V3.8z"/>
</g>
<g>
	<path class="st0" d="M66,70.4c0,5-3.3,8.1-9.7,8.1c-6.4,0-10-2.8-10-7.4v-9.8h6.4v9.1c0,2.4,1.4,3.5,3.4,3.5c2,0,3.5-1.2,3.5-3.8
		v-8.8H66V70.4z"/>
	<path class="st0" d="M40.9,65.2c0,2.3-0.4,3.7-2.2,4.2v0.1c1.9,0.5,2.2,2.1,2.2,4.5v5.7c0,2,0.5,3.2,2,3.7v0.1
		c-1.2,0-2.7,0.1-3.7-1.2c-0.7-0.9-0.8-2.6-0.8-3.8v-5.4c0-2.1-0.3-3.1-2-3.6v-0.1c0.6-0.2,1.1-0.5,1.5-1.2c0.5-0.8,0.5-1.4,0.5-2.5
		v-6c0-1.4,0.1-2.7,1-3.6c1.1-0.9,2.2-0.8,3.4-0.8v0.1c-1.6,0.6-2,1.7-2,3.7V65.2z"/>
	<path class="st0" d="M71.3,59c0-2.1-0.4-3.2-1.9-3.8v-0.1c1.2,0,2.2-0.2,3.3,0.8c0.9,0.9,1,2.2,1,3.7v6.1c0,1.1,0,1.7,0.5,2.5
		c0.4,0.7,0.9,1,1.4,1.2v0.1c-1.6,0.5-1.9,1.5-1.9,3.6v5.5c0,1.3,0,2.9-0.8,3.8c-0.9,1.3-2.4,1.2-3.5,1.2v-0.1
		c1.4-0.6,1.9-1.7,1.9-3.7v-5.7c0-2.4,0.3-4,2.1-4.5v-0.1c-1.7-0.5-2.1-2-2.1-4.2V59z"/>
</g>
</svg>
